<?xml version="1.0" encoding="UTF-8"?> <svg xmlns="http://www.w3.org/2000/svg" xmlns:xlink="http://www.w3.org/1999/xlink" width="255.49" height="64.575" viewBox="0 0 255.49 64.575"><defs><linearGradient id="linear-gradient" x1="0.035" y1="0.282" x2="0.932" y2="0.797" gradientUnits="objectBoundingBox"><stop offset="0.171" stop-color="#fcb833"></stop><stop offset="0.825" stop-color="#f69227"></stop></linearGradient></defs><g id="Group_921" data-name="Group 921" transform="translate(23620 -7833)"><g id="Group_920" data-name="Group 920" transform="translate(-23620 7833)"><path id="Path_300" data-name="Path 300" d="M203.767,227.2a11.227,11.227,0,0,0-9.342-1.785c-4.141,1.052-7.723,4.547-8,8.958-.216,3.43,2.768,6.769,5.79,7.658,2.547.749,5.105,3.236,4.038,5.552-1.741,3.772-6.74,3.418-9.869,1.995-7.449-3.389-12-8.6-10.747-17.72,1.053-7.633,6.834-12.684,13.811-14.787,5.113-1.541,12.072-1.273,16.157,2.732a21.581,21.581,0,0,1,5.305,8.508c.58,1.86,1.687,5.935-.317,6.329-1.592.314-2.572-1.7-3.456-3.323A14.033,14.033,0,0,0,203.767,227.2Z" transform="translate(-150.427 -210.252)" fill="#f69227"></path><path id="Path_301" data-name="Path 301" d="M143.8,205.271c2.311-1.2,1.375-3.386-1.623-3.6-2.636-.188-7.01,1.2-9.363,2.283-11.185,5.165-15.839,14.447-16.892,18.084a39.593,39.593,0,0,0-1.544,8.036,34.417,34.417,0,0,0,6.942,22.936c6.038,7.883,13.884,12.065,23.72,13.049,10.779,1.081,22.247-3.016,28.21-11.368,3.667-5.133,8.471-17.7,2.655-20.883-2.236-1.221-5.083.059-6.845,3.074-2.982,5.1-3.353,7.543-8.231,11.193-12.567,9.4-27.518,2.29-32.5-10.851-3.822-10.08,1.262-21.789,9.15-27.749A41.015,41.015,0,0,1,143.8,205.271Z" transform="translate(-114.312 -201.654)" fill="url(#linear-gradient)"></path></g><g id="Group_917" data-name="Group 917" transform="translate(-23896.389 7721.421)"><g id="Group_916" data-name="Group 916"><g id="Group_918" data-name="Group 918"><path id="Path_299-2" data-name="Path 299-2" d="M296.137,115.9" fill="#fff"></path></g><g id="Group_540" data-name="Group 540"><path id="Path_302" data-name="Path 302" d="M358.262,136.615l3.925,11.791h0l3.934-11.791h2.526l-5.518,15.511h-2.148L357.5,141.851h0c-.234.819-3.473,10.275-3.473,10.275h-2.162l-5.475-15.511h2.436l4.114,11.861h0c.188-.726,3.77-11.865,3.77-11.865Z" fill="#040405"></path><path id="Path_303" data-name="Path 303" d="M377.421,142.252a5.956,5.956,0,0,1,1.52,4.211,6.047,6.047,0,0,1-1.567,4.281,5.3,5.3,0,0,1-3.837,1.52,5.135,5.135,0,0,1-3.7-1.356,5.961,5.961,0,0,1-1.662-4.375,6.078,6.078,0,0,1,1.592-4.3,5.091,5.091,0,0,1,3.766-1.544A5.147,5.147,0,0,1,377.421,142.252Zm-6.761,4.235c0,2.292,1.1,3.837,2.9,3.837,1.873,0,2.879-1.59,2.879-3.837,0-2.316-1.076-3.836-2.924-3.836-1.872,0-2.854,1.567-2.854,3.836Z" fill="#040405"></path><path id="Path_304" data-name="Path 304" d="M386.94,143.26a2.663,2.663,0,0,0-1.239-.306,3.623,3.623,0,0,0-2.223,1.1v7.978h-2.432V140.966h2.035l.3,1.216a4.34,4.34,0,0,1,3.087-1.5,2.706,2.706,0,0,1,1.4.421Z" fill="#040405"></path><path id="Path_305" data-name="Path 305" d="M391.617,152.265a2.093,2.093,0,0,1-2.317-2.316v-14.48h2.433V148.9c0,.887.188,1.169.8,1.169a2.4,2.4,0,0,0,.725-.094l.3,1.8A3.933,3.933,0,0,1,391.617,152.265Z" fill="#040405"></path><path id="Path_306" data-name="Path 306" d="M400.306,152.265c-3.252,0-5.919-1.894-5.919-5.66a5.769,5.769,0,0,1,5.616-5.92c.124,0,.248,0,.373,0a8.5,8.5,0,0,1,1.543.141V135.47h2.434V151.4A8.687,8.687,0,0,1,400.306,152.265Zm1.613-9.38a4.525,4.525,0,0,0-1.449-.187,3.768,3.768,0,0,0,.093,7.533,4.431,4.431,0,0,0,1.356-.211Z" fill="#040405"></path><path id="Path_307" data-name="Path 307" d="M418.659,152.26c-4.795,0-7.625-3.368-7.625-7.766a7.808,7.808,0,0,1,7.581-8.028c.186-.005.372,0,.558,0a8.62,8.62,0,0,1,3.977.866l-.045,2.339a7.071,7.071,0,0,0-3.907-1.124c-3.533,0-5.5,2.621-5.5,5.755,0,3.323,2.013,5.778,5.334,5.778a7.686,7.686,0,0,0,3.72-1.006l.7,1.825A9.185,9.185,0,0,1,418.659,152.26Z" fill="#040405"></path><path id="Path_308" data-name="Path 308" d="M432.526,152.032v-6.6c0-1.286-.233-2.574-1.777-2.574a4.83,4.83,0,0,0-2.925,1.381v7.79H425.4v-16.56h2.43v6.736a5.9,5.9,0,0,1,3.743-1.519c1.637,0,3.392.889,3.392,4.069v7.276Z" fill="#040405"></path><path id="Path_309" data-name="Path 309" d="M440.647,137.526a1.555,1.555,0,1,1-1.59-1.52h.047a1.506,1.506,0,0,1,1.542,1.471C440.647,137.493,440.647,137.51,440.647,137.526Zm-2.76,14.51v-11.07h2.434v11.07Z" fill="#040405"></path><path id="Path_310" data-name="Path 310" d="M445.629,152.265a2.093,2.093,0,0,1-2.316-2.316v-14.48h2.433V148.9c0,.887.187,1.169.8,1.169a2.41,2.41,0,0,0,.726-.094l.3,1.8A3.94,3.94,0,0,1,445.629,152.265Z" fill="#040405"></path><path id="Path_311" data-name="Path 311" d="M454.542,152.265c-3.252,0-5.918-1.894-5.918-5.66a5.769,5.769,0,0,1,5.616-5.92c.124,0,.248,0,.372,0a8.522,8.522,0,0,1,1.545.141V135.47h2.432V151.4A8.675,8.675,0,0,1,454.542,152.265Zm1.614-9.38a4.538,4.538,0,0,0-1.451-.187,3.768,3.768,0,0,0,.094,7.533,4.437,4.437,0,0,0,1.357-.211Z" fill="#040405"></path><path id="Path_312" data-name="Path 312" d="M472.482,152.26c-4.8,0-7.626-3.368-7.626-7.766a7.808,7.808,0,0,1,7.583-8.028c.186-.005.372,0,.558,0a8.62,8.62,0,0,1,3.977.866l-.047,2.339a7.057,7.057,0,0,0-3.909-1.115c-3.532,0-5.5,2.621-5.5,5.755,0,3.323,2.011,5.778,5.332,5.778a7.687,7.687,0,0,0,3.72-1.006l.7,1.825A9.185,9.185,0,0,1,472.482,152.26Z" fill="#040405"></path><path id="Path_313" data-name="Path 313" d="M498.692,152.032v-6.62c0-1.193-.234-2.551-1.731-2.551a5.212,5.212,0,0,0-3.017,1.333v7.838h-2.432V140.966h2.036l.279,1.239a6.261,6.261,0,0,1,3.93-1.519c1.637,0,3.37,1.076,3.37,3.953v7.392Z" fill="#040405"></path><path id="Path_314" data-name="Path 314" d="M489.112,152.027a13.412,13.412,0,0,1-.25-3.369l.029-7.678h-2.036l-.1.874v9.235l.322.938Z" fill="#040405"></path><path id="Path_315" data-name="Path 315" d="M508.516,152.265c-3.531,0-5.333-2.62-5.333-5.684a5.579,5.579,0,0,1,5.253-5.887c.136-.007.273-.01.409-.008a5.93,5.93,0,0,1,3.018.749l-.025,2.081a4.662,4.662,0,0,0-2.807-.865c-2.035,0-3.416,1.591-3.416,3.813,0,2.082,1.148,3.813,3.37,3.813a5,5,0,0,0,2.666-.794l.656,1.615A6.883,6.883,0,0,1,508.516,152.265Z" fill="#040405"></path><path id="Path_316" data-name="Path 316" d="M483.576,152.2c-3.241,0-4.894-2.62-4.894-5.684,0-3.275,1.889-5.768,5.044-5.768a6.7,6.7,0,0,1,3.2,1.154l-.02,2.082a4.353,4.353,0,0,0-3-1.27c-1.868,0-2.987,1.463-2.987,3.685,0,2.081,1.053,3.812,3.093,3.812a3.9,3.9,0,0,0,2.726-.794l.774,1.334A7.636,7.636,0,0,1,483.576,152.2Z" fill="#040405"></path><path id="Path_317" data-name="Path 317" d="M515.819,147.076a3.133,3.133,0,0,0,3.081,3.186c.08,0,.161,0,.241,0a5.619,5.619,0,0,0,2.783-.771l.633,1.59a6.825,6.825,0,0,1-3.86,1.193c-3.72,0-5.382-2.829-5.382-5.848,0-3.157,1.849-5.73,4.844-5.73,2.947,0,4.772,2.268,4.772,5.708v.677Zm2.292-4.491a2.475,2.475,0,0,0-2.322,2.618l.006.072H520.4a2.465,2.465,0,0,0-2.215-2.692l-.082-.007Z" fill="#040405"></path><path id="Path_318" data-name="Path 318" d="M530.954,143.26a2.684,2.684,0,0,0-1.238-.306,3.615,3.615,0,0,0-2.223,1.1v7.978h-2.439V140.966h2.036l.3,1.216a4.338,4.338,0,0,1,3.088-1.5,2.687,2.687,0,0,1,1.4.421Z" fill="#040405"></path></g></g><g id="No_child_should_suffer" data-name="No child should suffer" style="isolation: isolate"><g id="Group_919" data-name="Group 919" style="isolation: isolate"><path id="Path_352" data-name="Path 352" d="M353.279,168.579h-1.431l-3.511-5.689H348.3l.025.318q.068.908.068,1.66v3.711h-1.059V161.44h1.416l3.5,5.659h.029c-.007-.075-.02-.348-.039-.817s-.03-.838-.03-1.1v-3.74h1.07Z" fill="#040405"></path><path id="Path_353" data-name="Path 353" d="M359.832,165.869a2.951,2.951,0,0,1-.679,2.065,2.433,2.433,0,0,1-1.89.742,2.589,2.589,0,0,1-1.338-.342,2.246,2.246,0,0,1-.893-.981,3.334,3.334,0,0,1-.313-1.484,2.928,2.928,0,0,1,.674-2.051,2.445,2.445,0,0,1,1.9-.737,2.385,2.385,0,0,1,1.856.753A2.918,2.918,0,0,1,359.832,165.869Zm-3.931,0q0,1.87,1.382,1.87,1.367,0,1.367-1.87,0-1.851-1.377-1.851a1.171,1.171,0,0,0-1.047.479A2.43,2.43,0,0,0,355.9,165.869Z" fill="#040405"></path><path id="Path_354" data-name="Path 354" d="M365.925,168.676a2.365,2.365,0,0,1-1.863-.715,3.625,3.625,0,0,1,.03-4.148,2.472,2.472,0,0,1,1.926-.732,3.6,3.6,0,0,1,1.538.317l-.347.923a3.463,3.463,0,0,0-1.2-.283q-1.4,0-1.4,1.86a2.224,2.224,0,0,0,.349,1.364,1.208,1.208,0,0,0,1.023.457,2.931,2.931,0,0,0,1.45-.381v1a2.275,2.275,0,0,1-.657.259A3.942,3.942,0,0,1,365.925,168.676Z" fill="#040405"></path><path id="Path_355" data-name="Path 355" d="M373.45,168.579H372.3v-3.321a1.454,1.454,0,0,0-.251-.932.973.973,0,0,0-.8-.308,1.27,1.27,0,0,0-1.062.432,2.378,2.378,0,0,0-.34,1.448v2.681H368.7v-7.6h1.147v1.929a9.015,9.015,0,0,1-.058.991h.073a1.591,1.591,0,0,1,.652-.606,2.1,2.1,0,0,1,.974-.214,1.742,1.742,0,0,1,1.963,1.977Z" fill="#040405"></path><path id="Path_356" data-name="Path 356" d="M374.978,161.748a.635.635,0,0,1,.168-.474.661.661,0,0,1,.481-.166.648.648,0,0,1,.472.166.635.635,0,0,1,.168.474.625.625,0,0,1-.168.461.641.641,0,0,1-.472.168.654.654,0,0,1-.481-.168A.625.625,0,0,1,374.978,161.748Zm1.216,6.831h-1.148v-5.4h1.148Z" fill="#040405"></path><path id="Path_357" data-name="Path 357" d="M378.982,168.579h-1.148v-7.6h1.148Z" fill="#040405"></path><path id="Path_358" data-name="Path 358" d="M382.444,168.676a1.88,1.88,0,0,1-1.577-.732,4.01,4.01,0,0,1,.007-4.123,1.9,1.9,0,0,1,1.589-.74,1.859,1.859,0,0,1,1.621.786h.059a6.955,6.955,0,0,1-.083-.918v-1.968h1.152v7.6h-.9l-.2-.708h-.054A1.835,1.835,0,0,1,382.444,168.676Zm.307-.927a1.248,1.248,0,0,0,1.031-.4,2.1,2.1,0,0,0,.332-1.291V165.9a2.42,2.42,0,0,0-.332-1.45,1.233,1.233,0,0,0-1.04-.43,1.057,1.057,0,0,0-.933.49,2.521,2.521,0,0,0-.327,1.4,2.463,2.463,0,0,0,.317,1.37A1.074,1.074,0,0,0,382.751,167.749Z" fill="#040405"></path><path id="Path_359" data-name="Path 359" d="M393.079,167.041a1.412,1.412,0,0,1-.577,1.213,2.755,2.755,0,0,1-1.65.422,3.9,3.9,0,0,1-1.733-.327v-.991a4.249,4.249,0,0,0,1.772.439q1.061,0,1.06-.639a.5.5,0,0,0-.118-.342,1.37,1.37,0,0,0-.385-.283,6.624,6.624,0,0,0-.747-.332,3.475,3.475,0,0,1-1.263-.723,1.341,1.341,0,0,1-.329-.937,1.234,1.234,0,0,1,.559-1.078,2.659,2.659,0,0,1,1.521-.382,4.312,4.312,0,0,1,1.8.385l-.371.865a3.991,3.991,0,0,0-1.47-.362q-.909,0-.908.518a.523.523,0,0,0,.237.43,5.17,5.17,0,0,0,1.032.483,4.711,4.711,0,0,1,.972.474,1.409,1.409,0,0,1,.449.5A1.424,1.424,0,0,1,393.079,167.041Z" fill="#040405"></path><path id="Path_360" data-name="Path 360" d="M399.07,168.579h-1.153v-3.321a1.454,1.454,0,0,0-.251-.932.972.972,0,0,0-.8-.308,1.27,1.27,0,0,0-1.062.432,2.385,2.385,0,0,0-.34,1.448v2.681h-1.147v-7.6h1.147v1.929a9.015,9.015,0,0,1-.058.991h.073a1.591,1.591,0,0,1,.652-.606,2.1,2.1,0,0,1,.974-.214,1.741,1.741,0,0,1,1.963,1.977Z" fill="#040405"></path><path id="Path_361" data-name="Path 361" d="M405.457,165.869a2.951,2.951,0,0,1-.679,2.065,2.433,2.433,0,0,1-1.89.742,2.589,2.589,0,0,1-1.338-.342,2.246,2.246,0,0,1-.893-.981,3.334,3.334,0,0,1-.313-1.484,2.928,2.928,0,0,1,.674-2.051,2.445,2.445,0,0,1,1.9-.737,2.385,2.385,0,0,1,1.856.753A2.918,2.918,0,0,1,405.457,165.869Zm-3.931,0q0,1.87,1.382,1.87,1.367,0,1.367-1.87,0-1.851-1.377-1.851a1.171,1.171,0,0,0-1.047.479A2.43,2.43,0,0,0,401.526,165.869Z" fill="#040405"></path><path id="Path_362" data-name="Path 362" d="M410.583,168.579l-.161-.708h-.058a1.629,1.629,0,0,1-.681.59,2.27,2.27,0,0,1-1.009.215,1.983,1.983,0,0,1-1.465-.488,2.024,2.024,0,0,1-.483-1.48v-3.53h1.157v3.33a1.445,1.445,0,0,0,.254.93.971.971,0,0,0,.8.311,1.27,1.27,0,0,0,1.062-.432,2.388,2.388,0,0,0,.339-1.448v-2.691h1.153v5.4Z" fill="#040405"></path><path id="Path_363" data-name="Path 363" d="M414.27,168.579h-1.147v-7.6h1.147Z" fill="#040405"></path><path id="Path_364" data-name="Path 364" d="M417.732,168.676a1.88,1.88,0,0,1-1.577-.732,4.01,4.01,0,0,1,.007-4.123,1.9,1.9,0,0,1,1.589-.74,1.862,1.862,0,0,1,1.622.786h.058a6.955,6.955,0,0,1-.083-.918v-1.968H420.5v7.6h-.9l-.2-.708h-.054A1.835,1.835,0,0,1,417.732,168.676Zm.308-.927a1.247,1.247,0,0,0,1.03-.4,2.088,2.088,0,0,0,.332-1.291V165.9a2.42,2.42,0,0,0-.332-1.45,1.233,1.233,0,0,0-1.04-.43,1.057,1.057,0,0,0-.933.49,2.521,2.521,0,0,0-.327,1.4,2.463,2.463,0,0,0,.317,1.37A1.075,1.075,0,0,0,418.04,167.749Z" fill="#040405"></path><path id="Path_365" data-name="Path 365" d="M428.367,167.041a1.413,1.413,0,0,1-.576,1.213,2.759,2.759,0,0,1-1.65.422,3.9,3.9,0,0,1-1.734-.327v-.991a4.257,4.257,0,0,0,1.773.439q1.059,0,1.059-.639a.507.507,0,0,0-.117-.342,1.378,1.378,0,0,0-.386-.283,6.623,6.623,0,0,0-.747-.332,3.46,3.46,0,0,1-1.262-.723,1.337,1.337,0,0,1-.33-.937,1.236,1.236,0,0,1,.559-1.078,2.66,2.66,0,0,1,1.522-.382,4.307,4.307,0,0,1,1.8.385l-.371.865a3.991,3.991,0,0,0-1.47-.362q-.907,0-.908.518a.523.523,0,0,0,.237.43,5.218,5.218,0,0,0,1.033.483,4.724,4.724,0,0,1,.971.474,1.412,1.412,0,0,1,.45.5A1.436,1.436,0,0,1,428.367,167.041Z" fill="#040405"></path><path id="Path_366" data-name="Path 366" d="M433.416,168.579l-.161-.708H433.2a1.623,1.623,0,0,1-.681.59,2.266,2.266,0,0,1-1.008.215,1.982,1.982,0,0,1-1.465-.488,2.024,2.024,0,0,1-.483-1.48v-3.53h1.157v3.33a1.439,1.439,0,0,0,.254.93.968.968,0,0,0,.8.311,1.268,1.268,0,0,0,1.061-.432,2.38,2.38,0,0,0,.34-1.448v-2.691h1.152v5.4Z" fill="#040405"></path><path id="Path_367" data-name="Path 367" d="M438.665,164.047h-1.318v4.532h-1.153v-4.532h-.888v-.537l.888-.351v-.352a1.96,1.96,0,0,1,.45-1.418,1.831,1.831,0,0,1,1.372-.462,3.676,3.676,0,0,1,1.191.2l-.3.87a2.647,2.647,0,0,0-.81-.137.661.661,0,0,0-.57.242,1.22,1.22,0,0,0-.177.725v.351h1.318Zm3.628,0h-1.318v4.532h-1.153v-4.532h-.888v-.537l.888-.351v-.352a1.965,1.965,0,0,1,.449-1.418,1.836,1.836,0,0,1,1.373-.462,3.676,3.676,0,0,1,1.191.2l-.3.87a2.647,2.647,0,0,0-.81-.137.659.659,0,0,0-.57.242,1.22,1.22,0,0,0-.177.725v.351h1.318Z" fill="#040405"></path><path id="Path_368" data-name="Path 368" d="M445.574,168.676a2.614,2.614,0,0,1-1.97-.734,2.79,2.79,0,0,1-.71-2.025,3.06,3.06,0,0,1,.659-2.08,2.277,2.277,0,0,1,1.811-.756,2.227,2.227,0,0,1,1.69.649,2.482,2.482,0,0,1,.62,1.787v.62h-3.6a1.768,1.768,0,0,0,.425,1.209,1.482,1.482,0,0,0,1.128.422,4.183,4.183,0,0,0,.891-.09,4.665,4.665,0,0,0,.886-.3v.933a3.488,3.488,0,0,1-.849.283A5.171,5.171,0,0,1,445.574,168.676Zm-.21-4.726a1.154,1.154,0,0,0-.877.346,1.659,1.659,0,0,0-.392,1.011h2.451a1.5,1.5,0,0,0-.322-1.014A1.108,1.108,0,0,0,445.364,163.95Z" fill="#040405"></path><path id="Path_369" data-name="Path 369" d="M451.717,163.081a2.815,2.815,0,0,1,.571.048l-.112,1.07a2.174,2.174,0,0,0-.508-.059,1.472,1.472,0,0,0-1.116.449,1.629,1.629,0,0,0-.427,1.167v2.823h-1.147v-5.4h.9l.151.952h.059a2.132,2.132,0,0,1,.7-.766A1.666,1.666,0,0,1,451.717,163.081Z" fill="#040405"></path></g></g></g></g></svg> 