<?xml version="1.0" encoding="UTF-8"?> <svg xmlns="http://www.w3.org/2000/svg" xmlns:xlink="http://www.w3.org/1999/xlink" width="255" height="64.575" viewBox="0 0 255 64.575"><defs><filter id="Path_299" x="17.732" y="4.324" width="12.12" height="14.14"><feOffset dx="4.04" dy="8.08"></feOffset><feGaussianBlur stdDeviation="2.02" result="blur"></feGaussianBlur><feFlood flood-color="#6a2712" flood-opacity="0.369"></feFlood><feComposite operator="in" in2="blur"></feComposite><feComposite in="SourceGraphic"></feComposite></filter><linearGradient id="linear-gradient" x1="0.035" y1="0.282" x2="0.932" y2="0.797" gradientUnits="objectBoundingBox"><stop offset="0.171" stop-color="#fcb833"></stop><stop offset="0.825" stop-color="#f69227"></stop></linearGradient></defs><g id="Group_542" data-name="Group 542" transform="translate(-114.312 -201.654)"><g transform="matrix(1, 0, 0, 1, 114.31, 201.65)" filter="url(#Path_299)"><path id="Path_299-2" data-name="Path 299" d="M162.6,212.225" transform="translate(-142.85 -207.9)" fill="#fff"></path></g><g id="Group_539" data-name="Group 539" transform="translate(114.312 201.654)"><path id="Path_300" data-name="Path 300" d="M203.767,227.2a11.227,11.227,0,0,0-9.342-1.785c-4.141,1.052-7.723,4.547-8,8.958-.216,3.43,2.768,6.769,5.79,7.658,2.547.749,5.105,3.236,4.038,5.552-1.741,3.772-6.74,3.418-9.869,1.995-7.449-3.389-12-8.6-10.747-17.72,1.053-7.633,6.834-12.684,13.811-14.787,5.113-1.541,12.072-1.273,16.157,2.732a21.581,21.581,0,0,1,5.305,8.508c.58,1.86,1.687,5.935-.317,6.329-1.592.314-2.572-1.7-3.456-3.323A14.033,14.033,0,0,0,203.767,227.2Z" transform="translate(-150.427 -210.252)" fill="#f69227"></path><path id="Path_301" data-name="Path 301" d="M143.8,205.271c2.311-1.2,1.375-3.386-1.623-3.6-2.636-.188-7.01,1.2-9.363,2.283-11.185,5.165-15.839,14.447-16.892,18.084a39.593,39.593,0,0,0-1.544,8.036,34.417,34.417,0,0,0,6.942,22.936c6.038,7.883,13.884,12.065,23.72,13.049,10.779,1.081,22.247-3.016,28.21-11.368,3.667-5.133,8.471-17.7,2.655-20.883-2.236-1.221-5.083.059-6.845,3.074-2.982,5.1-3.353,7.543-8.231,11.193-12.567,9.4-27.518,2.29-32.5-10.851-3.822-10.08,1.262-21.789,9.15-27.749A41.015,41.015,0,0,1,143.8,205.271Z" transform="translate(-114.312 -201.654)" fill="url(#linear-gradient)"></path></g><g id="Group_540" data-name="Group 540" transform="translate(183.817 225.544)"><path id="Path_302" data-name="Path 302" d="M296.1,262.851l3.925,11.791h0l3.934-11.791h2.526l-5.518,15.511h-2.148l-3.484-10.275h0c-.234.819-3.473,10.275-3.473,10.275H289.7l-5.475-15.511h2.436l4.114,11.861h0c.188-.726,3.77-11.865,3.77-11.865Z" transform="translate(-284.228 -261.705)" fill="#fff"></path><path id="Path_303" data-name="Path 303" d="M346.737,274.376a5.953,5.953,0,0,1,1.52,4.211,6.048,6.048,0,0,1-1.567,4.281,5.294,5.294,0,0,1-3.837,1.52,5.133,5.133,0,0,1-3.7-1.356,5.963,5.963,0,0,1-1.662-4.375,6.077,6.077,0,0,1,1.592-4.3,5.09,5.09,0,0,1,3.766-1.544A5.143,5.143,0,0,1,346.737,274.376Zm-6.761,4.235c0,2.292,1.1,3.837,2.9,3.837,1.873,0,2.879-1.59,2.879-3.837,0-2.316-1.076-3.836-2.924-3.836C340.959,274.774,339.977,276.342,339.977,278.611Z" transform="translate(-315.706 -267.593)" fill="#fff"></path><path id="Path_304" data-name="Path 304" d="M374.843,275.384a2.673,2.673,0,0,0-1.239-.306,3.626,3.626,0,0,0-2.223,1.1v7.978h-2.432V273.09h2.035l.3,1.216a4.34,4.34,0,0,1,3.087-1.5,2.7,2.7,0,0,1,1.4.421Z" transform="translate(-334.293 -267.593)" fill="#fff"></path><path id="Path_305" data-name="Path 305" d="M391.445,276.852a2.093,2.093,0,0,1-2.317-2.316v-14.48h2.433v13.428c0,.887.188,1.169.8,1.169a2.406,2.406,0,0,0,.725-.094l.3,1.8A3.927,3.927,0,0,1,391.445,276.852Z" transform="translate(-346.218 -260.056)" fill="#fff"></path><path id="Path_306" data-name="Path 306" d="M407.482,276.852c-3.252,0-5.919-1.894-5.919-5.66a5.77,5.77,0,0,1,5.989-5.918,8.556,8.556,0,0,1,1.543.141v-5.358h2.434v15.931A8.683,8.683,0,0,1,407.482,276.852Zm1.613-9.38a4.524,4.524,0,0,0-1.449-.187,3.768,3.768,0,0,0,.093,7.533,4.427,4.427,0,0,0,1.356-.211Z" transform="translate(-353.566 -260.056)" fill="#fff"></path><path id="Path_307" data-name="Path 307" d="M449.886,278.3c-4.795,0-7.625-3.368-7.625-7.766a7.808,7.808,0,0,1,8.139-8.024,8.615,8.615,0,0,1,3.977.866l-.045,2.339a7.063,7.063,0,0,0-3.907-1.124c-3.533,0-5.5,2.621-5.5,5.755,0,3.323,2.013,5.778,5.334,5.778a7.684,7.684,0,0,0,3.72-1.006l.7,1.825A9.185,9.185,0,0,1,449.886,278.3Z" transform="translate(-377.617 -261.509)" fill="#fff"></path><path id="Path_308" data-name="Path 308" d="M484.5,276.619v-6.6c0-1.286-.233-2.574-1.777-2.574a4.833,4.833,0,0,0-2.925,1.381v7.79H477.37V260.056H479.8v6.736a5.906,5.906,0,0,1,3.743-1.519c1.637,0,3.392.889,3.392,4.069v7.276Z" transform="translate(-398.364 -260.056)" fill="#fff"></path><path id="Path_309" data-name="Path 309" d="M510.16,262.89a1.555,1.555,0,1,1-1.543-1.52A1.507,1.507,0,0,1,510.16,262.89ZM507.4,277.4V266.33h2.434V277.4Z" transform="translate(-415.903 -260.833)" fill="#fff"></path><path id="Path_310" data-name="Path 310" d="M523.488,276.852a2.093,2.093,0,0,1-2.316-2.316v-14.48h2.433v13.428c0,.887.187,1.169.8,1.169a2.406,2.406,0,0,0,.726-.094l.3,1.8A3.931,3.931,0,0,1,523.488,276.852Z" transform="translate(-424.249 -260.056)" fill="#fff"></path><path id="Path_311" data-name="Path 311" d="M540.072,276.852c-3.252,0-5.918-1.894-5.918-5.66a5.77,5.77,0,0,1,5.988-5.918,8.576,8.576,0,0,1,1.545.141v-5.358h2.432v15.931A8.672,8.672,0,0,1,540.072,276.852Zm1.614-9.38a4.534,4.534,0,0,0-1.451-.187,3.768,3.768,0,0,0,.094,7.533,4.436,4.436,0,0,0,1.357-.211Z" transform="translate(-431.92 -260.056)" fill="#fff"></path><path id="Path_312" data-name="Path 312" d="M581.464,278.3c-4.8,0-7.626-3.368-7.626-7.766a7.809,7.809,0,0,1,8.141-8.024,8.617,8.617,0,0,1,3.977.866l-.047,2.339A7.054,7.054,0,0,0,582,264.6c-3.532,0-5.5,2.621-5.5,5.755,0,3.323,2.011,5.778,5.332,5.778a7.679,7.679,0,0,0,3.72-1.006l.7,1.825A9.186,9.186,0,0,1,581.464,278.3Z" transform="translate(-455.372 -261.509)" fill="#fff"></path><path id="Path_313" data-name="Path 313" d="M646.18,284.156v-6.62c0-1.193-.234-2.551-1.731-2.551a5.21,5.21,0,0,0-3.017,1.333v7.838H639V273.09h2.036l.279,1.239a6.258,6.258,0,0,1,3.93-1.519c1.637,0,3.37,1.076,3.37,3.953v7.392Z" transform="translate(-493.878 -267.593)" fill="#fff"></path><path id="Path_314" data-name="Path 314" d="M629.723,284.576a13.462,13.462,0,0,1-.25-3.369l.029-7.678h-2.036l-.1.874,0,9.235.322.938Z" transform="translate(-487.001 -268.018)" fill="#fff"></path><path id="Path_315" data-name="Path 315" d="M672.866,284.389c-3.531,0-5.333-2.62-5.333-5.684a5.579,5.579,0,0,1,5.662-5.895,5.928,5.928,0,0,1,3.018.749l-.025,2.081a4.662,4.662,0,0,0-2.807-.865c-2.035,0-3.416,1.591-3.416,3.813,0,2.082,1.148,3.813,3.37,3.813a4.993,4.993,0,0,0,2.666-.794l.656,1.615A6.884,6.884,0,0,1,672.866,284.389Z" transform="translate(-510.74 -267.593)" fill="#fff"></path><path id="Path_316" data-name="Path 316" d="M612.531,284.416c-3.241,0-4.894-2.62-4.894-5.684,0-3.275,1.889-5.768,5.044-5.768a6.7,6.7,0,0,1,3.2,1.154l-.02,2.082a4.355,4.355,0,0,0-3-1.27c-1.868,0-2.987,1.463-2.987,3.685,0,2.081,1.053,3.812,3.093,3.812a3.9,3.9,0,0,0,2.726-.794l.774,1.334A7.626,7.626,0,0,1,612.531,284.416Z" transform="translate(-475.345 -267.684)" fill="#fff"></path><path id="Path_317" data-name="Path 317" d="M694.8,279.2a3.134,3.134,0,0,0,3.322,3.181,5.612,5.612,0,0,0,2.783-.771l.633,1.59a6.82,6.82,0,0,1-3.86,1.193c-3.72,0-5.382-2.829-5.382-5.848,0-3.157,1.849-5.73,4.844-5.73,2.947,0,4.772,2.268,4.772,5.708v.677Zm2.292-4.491a2.474,2.474,0,0,0-2.316,2.69h4.609A2.465,2.465,0,0,0,697.088,274.7Z" transform="translate(-525.371 -267.593)" fill="#fff"></path><path id="Path_318" data-name="Path 318" d="M726.9,275.384a2.678,2.678,0,0,0-1.238-.306,3.618,3.618,0,0,0-2.223,1.1v7.978H721V273.09h2.036l.3,1.216a4.34,4.34,0,0,1,3.088-1.5,2.691,2.691,0,0,1,1.4.421Z" transform="translate(-542.336 -267.593)" fill="#fff"></path></g></g></svg> 